PathFileType	4	(X/Y/Z)	Run_200 02
DataRate	CameraRate	NumFrames	NumMarkers	Units	OrigDataRate	OrigDataStartFrame	OrigNumFrames
100	100	4	42	mm	100	126	128
Frame#	Time	LASI			RASI			LPSI			RPSI			RTH1			RTH2			RTH3			LTH1			LTH2			LTH3			RTB1			RTB2			RTB3			LTB1			LTB2			LTB3			RCAL			RTOE			RMT5			LCAL			LTOE			LMT5			LACR			RACR			CLAV			C7			RUA1			RUA2			RUA3			RLEL			RMEL			LUA1			LUA2			LUA3			LLEL			LMEL			RFAsuperior			RFAradius			RFAulna			LFAsuperior			LFAradius			LFAulna			
		X1	Y1	Z1	X2	Y2	Z2	X3	Y3	Z3	X4	Y4	Z4	X5	Y5	Z5	X6	Y6	Z6	X7	Y7	Z7	X8	Y8	Z8	X9	Y9	Z9	X10	Y10	Z10	X11	Y11	Z11	X12	Y12	Z12	X13	Y13	Z13	X14	Y14	Z14	X15	Y15	Z15	X16	Y16	Z16	X17	Y17	Z17	X18	Y18	Z18	X19	Y19	Z19	X20	Y20	Z20	X21	Y21	Z21	X22	Y22	Z22	X23	Y23	Z23	X24	Y24	Z24	X25	Y25	Z25	X26	Y26	Z26	X27	Y27	Z27	X28	Y28	Z28	X29	Y29	Z29	X30	Y30	Z30	X31	Y31	Z31	X32	Y32	Z32	X33	Y33	Z33	X34	Y34	Z34	X35	Y35	Z35	X36	Y36	Z36	X37	Y37	Z37	X38	Y38	Z38	X39	Y39	Z39	X40	Y40	Z40	X41	Y41	Z41	X42	Y42	Z42	

110	2.5	719.7936529999999	1070.517597	-431.223424	705.463832	1058.504642	-172.011833	547.5037139999999	1084.094614	-370.76265	539.340059	1084.123794	-271.004916	570.175489	881.259323	-135.214513	626.934321	760.683049	-147.126343	527.702369	663.3589909999999	-171.580081	676.927508	856.505911	-478.43539	782.90876	756.871612	-452.908894	757.366156	631.354521	-440.978646	489.497318	411.579777	-238.653738	427.783581	382.675782	-178.001556	379.293409	282.57373	-242.48839	836.860464	411.605624	-358.347525	806.50324	319.912615	-422.449512	846.315517	256.853298	-349.298658	217.147915	252.344428	-258.392082	353.161841	74.39056100000001	-278.34084	302.34291	87.410158	-193.175727	759.037879	94.45121	-340.555872	982.472005	133.498047	-311.640533	946.560799	95.6327	-402.719292	690.799968	1534.806735	-483.877485	726.221409	1543.467833	-160.44914	759.603526	1474.430562	-299.040924	641.868171	1557.538713	-312.987805	685.949312	1476.793731	-67.315957	615.21068	1407.62567	-68.92527200000001	655.1623959999999	1360.532242	-22.193372	630.628456	1259.876292	22.518628	597.086754	1237.844902	-50.150542	604.162447	1491.469686	-552.085391	539.388153	1439.134424	-497.800971	494.761559	1391.823527	-554.993379	448.336396	1318.714523	-580.982727	448.016772	1313.310941	-503.644496	735.165134	1238.837563	7.356533	873.032456	1213.562914	-64.498114	854.3687619999999	1148.10406	-39.930501	526.770697	1239.89187	-595.746201	647.919031	1133.094086	-550.5764799999999	594.357793	1089.878968	-571.475118	
111	2.51	720.459218	1067.693522	-431.411595	704.761849	1057.08051	-172.413704	547.750771	1080.955541	-371.192016	538.697077	1082.290756	-271.022435	572.712792	877.636081	-134.991819	631.172339	757.360891	-147.922569	533.880274	658.6964379999999	-171.046497	677.845533	854.015174	-480.311077	782.766165	753.381411	-454.006215	758.654185	628.8803799999999	-439.851116	492.70022	408.630043	-237.272417	429.772705	382.657509	-176.631196	376.678161	284.875853	-240.989436	833.801004	408.225919	-356.142661	803.184296	316.764946	-420.840849	841.377826	253.093365	-347.24022	215.05047	264.141141	-256.085132	338.732014	76.85124399999999	-276.632999	288.47407	92.798982	-192.610552	751.8299950000001	91.910197	-338.265483	975.899932	128.566394	-310.601931	938.721355	92.419681	-401.823213	690.524951	1531.760666	-485.196206	724.170787	1541.727944	-161.450009	758.584531	1472.479164	-299.773679	640.894559	1555.302822	-314.698025	682.779526	1475.162463	-68.512961	612.475884	1405.585033	-70.891465	652.214754	1358.978846	-23.358353	627.93011	1258.20831	21.253761	594.69464	1236.161436	-51.497812	604.277595	1487.728815	-553.590879	539.376525	1434.990233	-499.528029	495.426351	1387.281123	-556.462908	449.872961	1313.869312	-583.098437	449.616649	1308.237526	-505.819567	732.621166	1236.803894	6.46103	870.597183	1211.233872	-65.001442	851.732339	1145.816939	-40.514966	529.029932	1235.779756	-597.401934	651.432588	1130.514024	-551.327871	598.511973	1086.590273	-572.411897	
112	2.52	720.852439	1064.133492	-431.615971	703.92786	1054.71856	-172.688558	547.940653	1076.846239	-371.313161	538.013301	1079.780647	-270.573781	575.612704	872.826815	-134.831181	636.082836	753.164173	-148.834808	540.88962	652.976408	-170.684583	679.8301279999999	852.211962	-482.016406	783.7142270000001	750.540913	-454.981803	759.755073	626.092408	-438.063144	497.405241	404.91203	-235.866444	433.247859	382.152382	-175.277656	375.576262	286.833229	-239.392204	829.467654	403.393516	-353.573434	797.356339	312.701401	-419.098912	833.686605	247.919259	-345.266143	215.167698	275.810681	-253.532646	325.522835	80.509024	-276.075677	275.500179	98.675393	-192.044052	740.645613	90.080912	-335.861389	965.443615	120.928522	-309.665459	926.61483	87.30108799999999	-400.811	690.347968	1527.626674	-486.488687	721.911897	1539.009413	-162.431245	757.466696	1469.497937	-300.37751	639.893326	1552.063176	-316.475211	679.587353	1472.537392	-69.71303	609.568907	1402.690617	-72.872547	648.982404	1356.414962	-24.583591	624.732904	1255.620864	19.947534	591.963659	1233.498473	-53.008158	604.785108	1482.505661	-555.342505	539.627216	1429.31283	-501.855183	496.768244	1380.950537	-558.523742	452.243524	1307.23774	-585.659661	451.48515	1301.492547	-508.360923	729.490909	1233.71937	5.567987	867.623748	1207.526309	-65.305689	848.3403029999999	1142.204488	-40.978639	532.4169910000001	1230.040939	-599.339054	656.0476180000001	1126.683746	-551.969678	603.960944	1081.952924	-573.398876	
113	2.53	721.063539	1059.971489	-431.870439	703.6128189999999	1051.390044	-172.657034	547.990583	1071.802244	-371.234524	537.800831	1076.381805	-269.796625	578.7879	867.050326	-134.788886	641.398872	748.192753	-149.577437	548.461337	646.307206	-170.440162	682.14352	850.653963	-482.62191	785.065025	748.05547	-454.85473	760.122304	622.6920249999999	-435.958489	503.45013	400.497596	-234.340854	438.106592	381.068268	-173.914732	376.068835	288.39425	-237.553304	824.118575	397.183578	-351.199434	789.432533	307.60462	-417.029095	823.931479	241.573948	-343.219862	217.639489	287.099904	-250.80555	313.416431	84.824697	-275.900556	263.482659	105.031489	-191.541351	726.51855	89.60520200000001	-333.361362	952.023961	110.270769	-308.948647	911.175034	79.571603	-400.174686	690.310195	1522.429315	-487.775186	719.5002899999999	1535.280133	-163.459864	756.302735	1465.400764	-300.884909	638.9176660000001	1547.802441	-318.289393	676.478967	1468.923945	-70.95385	606.5247859999999	1398.993733	-74.78823	645.507658	1352.871214	-25.876609	620.997847	1252.158632	18.629855	588.876681	1229.941643	-54.647505	605.711783	1475.909286	-557.331429	540.190265	1422.204923	-504.704126	498.85464	1372.990418	-561.217863	455.482682	1298.927157	-588.65721	453.716508	1293.251098	-511.240386	725.737453	1229.617187	4.683696	864.086593	1202.471385	-65.42036	844.190297	1137.297928	-41.279565	536.926428	1222.821499	-601.482154	661.672377	1121.660014	-552.481527	610.637624	1076.057419	-574.424887	
